# xmcd
#
# Track frame offsets:
#	300
#	23746
#	43212
#	63163
#	83688
#	97472
#	127590
#	143169
#	161797
#	179850
#	204654
#	237978
# Disc length: 3496 seconds
# Revision: 2
# Processed by: cddbd v1.5.2PL0 Copyright (c) Steve Scherf et al.
#
# Submitted via: libkcddb 0.31
#
DISCID=ac0da40c
DTITLE=Cream - Cream Remasters - Renovating the Blues - Disc 1
DYEAR=1900
DGENRE=Unknown
TTITLE0=Cream - Stepping Out
TTITLE1=Cream - Sweet Wine
TTITLE2=Cream - Meet Me in the Bottom
TTITLE3=Cream - N.S.U.
TTITLE4=Cream - Hey Lawdy Mama
TTITLE5=Cream - Sleepy Time Time
TTITLE6=Cream - Crossroads
TTITLE7=Cream - N.S.U.
TTITLE8=Cream - Stepping Out
TTITLE9=Cream - Traintime
TTITLE10=Cream - Toad
TTITLE11=Cream - I'm So Glad
EXTD=
EXTT0=
EXTT1=
EXTT2=
EXTT3=
EXTT4=
EXTT5=
EXTT6=
EXTT7=
EXTT8=
EXTT9=
EXTT10=
EXTT11=
PLAYORDER=
